<?xml version="1.0" encoding="UTF-8"?>
<svg id="Capa_1" xmlns="http://www.w3.org/2000/svg" version="1.1" viewBox="0 0 106 104">
  <!-- Generator: Adobe Illustrator 29.1.0, SVG Export Plug-In . SVG Version: 2.1.0 Build 142)  -->
  <defs>
    <style>
      .st0 {
        fill: #bfe94d;
      }
    </style>
  </defs>
  <path class="st0" d="M42.02,0h25.57c2.88,0,4.89,2.84,3.92,5.55l-14.28,39.78,28.85-29.63c1.92-1.97,5.2-1.57,6.58.82l12.79,22.09c1.44,2.49-.03,5.64-2.86,6.16l-39.96,7.24,39.96,7.24c2.83.51,4.3,3.67,2.86,6.16l-12.79,22.09c-1.38,2.38-4.66,2.79-6.58.82l-29.74-30.55,11.65,40.96c.75,2.65-1.24,5.28-4,5.28h-25.57c-2.88,0-4.88-2.85-3.91-5.55l14.28-39.78-28.85,29.63c-1.92,1.97-5.2,1.57-6.58-.82L.56,65.4c-1.44-2.49.03-5.64,2.86-6.16l39.96-7.24L3.42,44.76c-2.83-.51-4.3-3.67-2.86-6.16l12.79-22.09c1.38-2.38,4.66-2.79,6.58-.82l29.74,30.55L38.02,5.28c-.75-2.65,1.24-5.28,4-5.28Z"/>
</svg>