<?xml version="1.0" encoding="UTF-8"?>
<svg id="ELEMENTS" xmlns="http://www.w3.org/2000/svg" version="1.1" viewBox="0 0 51.92 54.32">
  <!-- Generator: Adobe Illustrator 29.1.0, SVG Export Plug-In . SVG Version: 2.1.0 Build 142)  -->
  <defs>
    <style>
      .st0 {
        fill: #fff;
      }
    </style>
  </defs>
  <g>
    <path class="st0" d="M29.65-47.15l-5.58-3.03c-.23-.13-1.01.03-1.01.3v5.92c0,.26.78.43,1,.3l5.82-2.88c.24-.13,0-.47-.24-.6Z"/>
    <path class="st0" d="M25.96-70.84c-13.16,0-23.83,10.67-23.83,23.83s10.67,23.83,23.83,23.83,23.83-10.67,23.83-23.83-10.67-23.83-23.83-23.83ZM37.54-43.99c0,2.81-2.27,5.08-5.08,5.08h-12.99c-2.81,0-5.08-2.27-5.08-5.08v-6.04c0-2.81,2.27-5.08,5.08-5.08h12.99c2.81,0,5.08,2.27,5.08,5.08v6.04Z"/>
  </g>
  <path class="st0" d="M25.96,3.33C12.8,3.33,2.13,14,2.13,27.16s10.67,23.83,23.83,23.83,23.83-10.67,23.83-23.83S39.12,3.33,25.96,3.33ZM36.25,24.6h0c-.22.02-.44.03-.66.03-2.41,0-4.67-1.22-5.99-3.24v11.02c0,4.5-3.65,8.15-8.15,8.15s-8.15-3.65-8.15-8.15,3.65-8.15,8.15-8.15c.17,0,.34.02.5.03v4.01c-.17-.02-.33-.05-.5-.05-2.3,0-4.16,1.86-4.16,4.16s1.86,4.16,4.16,4.16,4.32-1.81,4.32-4.11l.04-18.72h3.84c.36,3.44,3.14,6.13,6.59,6.39v4.46Z"/>
  <g>
    <path class="st0" d="M88.44-38.65h-9.9c-2.82,0-5.12,2.3-5.12,5.12v9.9c0,2.82,2.3,5.12,5.12,5.12h9.9c2.82,0,5.12-2.3,5.12-5.12v-9.9c0-2.82-2.3-5.12-5.12-5.12ZM83.59-22.47c-3.37,0-6.11-2.74-6.11-6.11s2.74-6.11,6.11-6.11,6.11,2.74,6.11,6.11-2.74,6.11-6.11,6.11ZM90.05-33.64c-.8,0-1.45-.65-1.45-1.45s.65-1.45,1.45-1.45,1.45.65,1.45,1.45-.65,1.45-1.45,1.45Z"/>
    <path class="st0" d="M83.49-52.41c-13.16,0-23.83,10.67-23.83,23.83s10.67,23.83,23.83,23.83,23.83-10.67,23.83-23.83-10.67-23.83-23.83-23.83ZM95.89-23.63c0,4.11-3.34,7.45-7.45,7.45h-9.9c-4.11,0-7.45-3.34-7.45-7.45v-9.9c0-4.11,3.34-7.45,7.45-7.45h9.9c4.11,0,7.45,3.34,7.45,7.45v9.9Z"/>
    <path class="st0" d="M83.59-32.49c-2.16,0-3.91,1.76-3.91,3.91s1.76,3.91,3.91,3.91,3.91-1.76,3.91-3.91-1.76-3.91-3.91-3.91Z"/>
  </g>
</svg>