<?xml version="1.0" encoding="UTF-8"?>
<svg id="Capa_1" xmlns="http://www.w3.org/2000/svg" version="1.1" viewBox="0 0 137.21 100">
  <!-- Generator: Adobe Illustrator 29.1.0, SVG Export Plug-In . SVG Version: 2.1.0 Build 142)  -->
  <defs>
    <style>
      .st0 {
        fill: #f670db;
      }

      .st1 {
        fill: #030405;
      }
    </style>
  </defs>
  <g>
    <path class="st1" d="M30.58,46.56c3.5,2.57,4.78,9.21,4.78,17.26v13.41c0,10.61-6.06,14.7-16.45,14.7h-10.5V6.79h10.5c9.33,0,14.7,4.08,14.7,14.7v8.05c0,8.98-4.67,13.41-10.85,16.56v1.17l7.81-.7ZM17.17,14.72v31.61l2.22-.93c4.43-1.98,5.48-4.78,5.48-8.86v-12.13c0-7.58-1.75-9.68-6.77-9.68h-.93ZM26.62,56.59c0-5.25-2.1-7.7-6.18-7.7-1.28,0-2.33.47-3.27,1.17v33.94h.93c6.3,0,8.51-2.1,8.51-9.68v-17.73Z"/>
    <path class="st1" d="M59.8,91.94l-3.03-23.91h-8.75l-1.52,23.91h-10.5l12.83-73.36-5.02-11.78h11.55l14.23,85.15h-9.8ZM48.25,65.69h8.16l-2.1-16.91-2.22-23.33h-1.28l-2.57,40.24Z"/>
    <path class="st1" d="M79.8,93.1c-6.88,0-10.15-3.62-10.15-10.85s.23-15.98,1.28-22.39h8.4c-5.25,10.03-7.46,17.26-7.46,21,0,3.38,2.22,4.32,7.93,4.32,3.85,0,4.78-2.33,4.78-5.37,0-15.4-15.51-42.69-15.51-59.49,0-10.38,6.18-14.7,13.53-14.7,6.07,0,8.98,3.62,8.98,10.85,0,4.43,0,13.3-1.28,21.23h-7.7c5.25-12.71,6.77-16.91,6.77-20.06s-1.87-4.08-6.77-4.08c-3.85,0-4.78,2.33-4.78,5.37,0,13.18,15.51,46.31,15.51,59.84,0,10.03-6.18,14.35-13.53,14.35Z"/>
    <path class="st1" d="M104.93,6.79v85.15h-8.75V6.79h8.75Z"/>
    <path class="st1" d="M128.55,17.05c0-2.57-1.87-3.5-6.77-3.5-3.03,0-3.73,2.57-3.73,6.65v55.29c0,8.4,2.45,9.68,4.78,9.68,3.03,0,4.2-4.43,4.43-11.9l.35-13.76h1.63l.35,14.11c.23,11.08-3.15,19.48-10.15,19.48s-10.15-3.62-10.15-13.65V21.37c0-11.43,5.72-15.75,12.48-15.75,6.07,0,8.98,3.62,8.98,10.85,0,5.95-.23,14.11-2.33,25.89h-8.86c8.16-17.5,8.98-22.04,8.98-25.31Z"/>
  </g>
  <g>
    <path class="st0" d="M49.78,72.65c-.38-.43-1-.64-1.83-.64-.19,0-.4.03-.64.1-.24.07-.5.17-.77.3-.28.13-.55.31-.84.53-.28.22-.55.48-.81.76-.26.28-.51.62-.73,1.01-.23.4-.41.82-.56,1.27-.13.41-.22.82-.27,1.21s-.04.78.01,1.14c.06.36.16.68.32.96s.39.5.69.66c.3.16.66.24,1.08.24.64,0,1.25-.12,1.83-.36.58-.24,1.2-.63,1.87-1.17l.25.2c-.67.61-1.36,1.08-2.07,1.41s-1.4.49-2.06.49c-.58,0-1.08-.09-1.52-.26-.44-.17-.78-.4-1.02-.7-.25-.29-.42-.63-.54-1.02-.11-.39-.16-.8-.13-1.23.03-.43.11-.88.26-1.33.22-.66.54-1.29.98-1.89.44-.6.93-1.1,1.47-1.52s1.12-.74,1.74-.98,1.21-.36,1.78-.36c.32,0,.63.02.94.06s.57.09.79.16c.22.06.41.12.58.19.17.06.3.12.38.16l.13.06c-.61.7-1.14,1.34-1.59,1.92l-.32-.19c.28-.42.48-.82.6-1.21Z"/>
    <path class="st0" d="M54.46,74.45c.5,0,.91.08,1.25.25s.59.39.74.68c.15.29.23.61.24.98s-.06.76-.19,1.18c-.3.92-.82,1.68-1.57,2.29-.75.61-1.59.91-2.51.91s-1.54-.3-1.9-.9c-.36-.6-.4-1.37-.09-2.3.18-.55.47-1.05.88-1.52.41-.47.89-.85,1.45-1.13.56-.29,1.13-.43,1.71-.43ZM54.28,75.01c-.6,0-1.16.24-1.69.72-.52.48-.9,1.08-1.14,1.81s-.25,1.37-.04,1.88c.21.51.61.77,1.18.77.64,0,1.21-.24,1.71-.73.51-.49.89-1.13,1.15-1.92.24-.74.26-1.34.07-1.82-.19-.48-.61-.71-1.25-.71Z"/>
    <path class="st0" d="M57.26,79.4l2.18-6.72c.12-.38.18-.65.16-.79s-.1-.22-.24-.22l-.32.03h-.15s-.07,0-.05-.05l.09-.35c.23,0,.57-.04,1-.12.26-.04.53-.12.81-.23h.3l-2.53,7.8c-.15.45-.22.77-.22.97s.09.29.27.29c.33,0,.7-.13,1.11-.38l.17.24c-.74.61-1.41.91-2.02.91-.33,0-.55-.11-.65-.33-.1-.22-.07-.57.08-1.05Z"/>
    <path class="st0" d="M60.88,79.4l2.18-6.72c.12-.38.18-.65.16-.79s-.1-.22-.24-.22l-.32.03h-.15s-.07,0-.05-.05l.09-.35c.23,0,.57-.04,1-.12.26-.04.53-.12.81-.23h.3l-2.53,7.8c-.15.45-.22.77-.22.97s.09.29.27.29c.33,0,.7-.13,1.11-.38l.17.24c-.74.61-1.41.91-2.02.91-.33,0-.55-.11-.65-.33-.1-.22-.07-.57.08-1.05Z"/>
    <path class="st0" d="M69.12,77.32h-3.65c-.04.1-.08.19-.1.28-.22.69-.21,1.28.03,1.77.24.49.63.73,1.15.73.37,0,.71-.06,1.01-.19.31-.12.63-.32.96-.59l.2.23c-.39.38-.83.67-1.3.9-.48.22-.95.33-1.43.33s-.84-.08-1.15-.24-.52-.38-.63-.66c-.12-.28-.18-.59-.17-.93,0-.34.07-.71.2-1.1.16-.5.4-.97.69-1.41.3-.43.62-.79.97-1.07s.71-.5,1.08-.65c.37-.16.72-.23,1.06-.23.4,0,.72.07.97.2s.42.31.51.54c.09.23.14.47.13.72s-.04.53-.11.83h.75c.07,0,.1.03.08.08l-.09.28c-.02.06-.07.1-.15.14-.08.03-.16.05-.24.05h-.78ZM65.69,76.77h2.54c.14,0,.22-.06.26-.19.1-.31.15-.57.15-.79s-.04-.39-.12-.51c-.08-.11-.18-.2-.29-.25-.11-.05-.24-.08-.37-.08-.09,0-.18,0-.27.02-.1.02-.23.06-.4.13s-.33.17-.49.29c-.16.12-.33.3-.51.53-.18.24-.35.52-.5.84Z"/>
    <path class="st0" d="M74.32,74.49c.49,0,.96.13,1.43.4-.06.43-.17.9-.31,1.41l-.38.02c.04-.55,0-.92-.12-1.1-.12-.18-.37-.26-.75-.26-.56,0-1.05.22-1.47.65s-.76,1.04-1.01,1.81-.28,1.45-.07,1.97c.21.52.58.78,1.13.78s1.19-.34,1.88-1.01l.18.2c-.46.51-.89.88-1.3,1.1-.41.22-.83.33-1.26.33-.83,0-1.39-.28-1.7-.85-.31-.57-.31-1.3-.02-2.21.32-.98.82-1.76,1.51-2.35.69-.59,1.45-.88,2.28-.88Z"/>
    <path class="st0" d="M78.36,75.18l-1.43,4.43c-.08.25-.11.42-.08.51.03.09.16.13.4.14h.22c.07.02.1.05.09.09l-.09.28s-.25,0-.64-.02c-.39-.02-.64-.02-.75-.02-.08,0-.2,0-.36.01-.16,0-.34.01-.55.02-.21,0-.36.01-.46.02l.09-.27c.02-.06.06-.09.11-.09h.25c.24-.02.4-.07.48-.14.08-.08.17-.25.25-.51l1.44-4.43h-.9s-.06-.02-.05-.05l.14-.43s.04-.05.07-.05c.44,0,.79-.13,1.03-.38.24-.25.46-.66.64-1.22l.09-.26.88-.28-.69,2.14h1.53c.07,0,.1.03.08.08l-.09.28c-.02.06-.07.1-.15.13-.08.03-.16.05-.24.05h-1.31Z"/>
    <path class="st0" d="M81.12,78.74c-.15.45-.22.77-.22.97s.09.29.27.29c.33,0,.7-.13,1.11-.38l.17.24c-.74.61-1.41.91-2.02.91-.33,0-.55-.11-.65-.32-.1-.22-.07-.57.09-1.06l1.05-3.23c.11-.34.16-.57.15-.68-.01-.11-.07-.17-.18-.17-.16,0-.36.02-.6.07l.06-.38c.44-.07.75-.13.93-.18.18-.05.39-.12.64-.22.19-.08.31-.12.38-.12h.21l-1.38,4.26ZM81.8,73.17c-.09-.13-.1-.29-.04-.47s.18-.34.35-.47.35-.19.53-.19.32.06.4.19c.09.13.1.29.04.47s-.18.34-.35.47c-.17.13-.35.19-.53.19s-.32-.06-.41-.19Z"/>
    <path class="st0" d="M87.43,74.45c.5,0,.91.08,1.25.25s.59.39.74.68c.15.29.23.61.24.98s-.06.76-.19,1.18c-.3.92-.82,1.68-1.57,2.29-.75.61-1.59.91-2.51.91s-1.54-.3-1.9-.9c-.37-.6-.4-1.37-.09-2.3.18-.55.47-1.05.88-1.52s.89-.85,1.45-1.13c.56-.29,1.13-.43,1.71-.43ZM87.25,75.01c-.6,0-1.16.24-1.69.72-.52.48-.9,1.08-1.14,1.81s-.25,1.37-.04,1.88c.21.51.61.77,1.18.77.64,0,1.21-.24,1.71-.73.51-.49.89-1.13,1.15-1.92.24-.74.26-1.34.07-1.82-.19-.48-.61-.71-1.25-.71Z"/>
    <path class="st0" d="M91.37,76.25c.11-.35.17-.59.17-.72,0-.13-.08-.2-.22-.2-.21,0-.46.02-.73.07l.07-.38c.37-.07.66-.12.86-.16.2-.04.41-.1.64-.17.22-.07.4-.14.52-.22h.31l-.37,1.03h.04c.86-.69,1.62-1.03,2.28-1.03.33,0,.6.05.8.16s.34.25.4.43c.06.19.09.38.08.59-.01.21-.06.44-.15.7l-1.03,3.16c-.08.25-.1.43-.05.53.05.11.19.16.43.16.06,0,.14,0,.23-.01l.03.02-.12.36-.05.03c-.62-.02-1.07-.03-1.37-.03l-.52.03.37-1.1.96-2.96c.08-.23.12-.44.13-.62.01-.18,0-.32-.04-.42-.04-.1-.1-.19-.18-.25-.08-.07-.16-.11-.24-.13s-.17-.03-.26-.03c-.3,0-.64.11-1.01.33-.39.24-.69.45-.9.62l-1.11,3.43c-.09.27-.11.46-.08.57s.18.16.42.16c.12,0,.22,0,.28-.01l.02.03-.11.34-.04.04c-.65-.02-1.1-.03-1.36-.03l-.56.03.37-1.09,1.06-3.27Z"/>
  </g>
</svg>